REM MD5 4aa9a010eb0ad63210776201b8a6ec1f
FILE "Sabrina l'Apprentie Sorciere et l'Horloge Cosmique (France).bin" BINARY
  TRACK 01 MODE2/2352
    INDEX 01 00:00:00
  TRACK 02 AUDIO
    INDEX 00 11:59:26
    INDEX 01 12:01:26
  TRACK 03 AUDIO
    INDEX 00 13:50:27
    INDEX 01 13:52:27
  TRACK 04 AUDIO
    INDEX 00 15:40:31
    INDEX 01 15:42:31
  TRACK 05 AUDIO
    INDEX 00 17:34:30
    INDEX 01 17:36:30
  TRACK 06 AUDIO
    INDEX 00 20:04:52
    INDEX 01 20:06:52
  TRACK 07 AUDIO
    INDEX 00 22:07:22
    INDEX 01 22:09:22
  TRACK 08 AUDIO
    INDEX 00 24:37:44
    INDEX 01 24:39:44
  TRACK 09 AUDIO
    INDEX 00 26:40:14
    INDEX 01 26:42:14
  TRACK 10 AUDIO
    INDEX 00 29:06:60
    INDEX 01 29:08:60
  TRACK 11 AUDIO
    INDEX 00 31:18:24
    INDEX 01 31:20:24
  TRACK 12 AUDIO
    INDEX 00 33:44:70
    INDEX 01 33:46:70
  TRACK 13 AUDIO
    INDEX 00 35:56:34
    INDEX 01 35:58:34
  TRACK 14 AUDIO
    INDEX 00 38:26:56
    INDEX 01 38:28:56
  TRACK 15 AUDIO
    INDEX 00 40:31:19
    INDEX 01 40:33:19
  TRACK 16 AUDIO
    INDEX 00 43:01:41
    INDEX 01 43:03:41
  TRACK 17 AUDIO
    INDEX 00 45:06:04
    INDEX 01 45:08:04
  TRACK 18 AUDIO
    INDEX 00 47:16:49
    INDEX 01 47:18:49
  TRACK 19 AUDIO
    INDEX 00 49:51:48
    INDEX 01 49:53:48
  TRACK 20 AUDIO
    INDEX 00 52:02:18
    INDEX 01 52:04:18
  TRACK 21 AUDIO
    INDEX 00 54:37:17
    INDEX 01 54:39:17
  TRACK 22 AUDIO
    INDEX 00 54:48:31
    INDEX 01 54:50:31
  TRACK 23 AUDIO
    INDEX 00 54:59:64
    INDEX 01 55:01:64
  TRACK 24 AUDIO
    INDEX 00 55:11:71
    INDEX 01 55:13:71
  TRACK 25 AUDIO
    INDEX 00 55:24:10
    INDEX 01 55:26:10
  TRACK 26 AUDIO
    INDEX 00 55:35:06
    INDEX 01 55:37:06
  TRACK 27 AUDIO
    INDEX 00 55:42:07
    INDEX 01 55:44:07
  TRACK 28 AUDIO
    INDEX 00 55:52:69
    INDEX 01 55:54:69
  TRACK 29 AUDIO
    INDEX 00 56:03:58
    INDEX 01 56:05:58
  TRACK 30 AUDIO
    INDEX 00 56:15:68
    INDEX 01 56:17:68
  TRACK 31 AUDIO
    INDEX 00 56:25:01
    INDEX 01 56:27:01
  TRACK 32 AUDIO
    INDEX 00 56:33:27
    INDEX 01 56:35:27
  TRACK 33 AUDIO
    INDEX 00 56:44:66
    INDEX 01 56:46:66
  TRACK 34 AUDIO
    INDEX 00 56:54:68
    INDEX 01 56:56:68
  TRACK 35 AUDIO
    INDEX 00 57:07:02
    INDEX 01 57:09:02
  TRACK 36 AUDIO
    INDEX 00 57:17:15
    INDEX 01 57:19:15
  TRACK 37 AUDIO
    INDEX 00 57:26:27
    INDEX 01 57:28:27
  TRACK 38 AUDIO
    INDEX 00 57:38:05
    INDEX 01 57:40:05
  TRACK 39 AUDIO
    INDEX 00 57:48:43
    INDEX 01 57:50:43
  TRACK 40 AUDIO
    INDEX 00 57:57:51
    INDEX 01 57:59:51
  TRACK 41 AUDIO
    INDEX 00 58:07:60
    INDEX 01 58:09:60
  TRACK 42 AUDIO
    INDEX 00 58:17:08
    INDEX 01 58:19:08
  TRACK 43 AUDIO
    INDEX 00 58:29:13
    INDEX 01 58:31:13
  TRACK 44 AUDIO
    INDEX 00 58:39:56
    INDEX 01 58:41:56
  TRACK 45 AUDIO
    INDEX 00 58:47:03
    INDEX 01 58:49:03
  TRACK 46 AUDIO
    INDEX 00 58:56:01
    INDEX 01 58:58:01
  TRACK 47 AUDIO
    INDEX 00 59:10:66
    INDEX 01 59:12:66
  TRACK 48 AUDIO
    INDEX 00 59:19:00
    INDEX 01 59:21:00
  TRACK 49 AUDIO
    INDEX 00 59:26:15
    INDEX 01 59:28:15
  TRACK 50 AUDIO
    INDEX 00 59:37:23
    INDEX 01 59:39:23
  TRACK 51 AUDIO
    INDEX 00 59:47:12
    INDEX 01 59:49:12
  TRACK 52 AUDIO
    INDEX 00 59:54:13
    INDEX 01 59:56:13
  TRACK 53 AUDIO
    INDEX 00 60:01:14
    INDEX 01 60:03:14
  TRACK 54 AUDIO
    INDEX 00 60:08:15
    INDEX 01 60:10:15
  TRACK 55 AUDIO
    INDEX 00 60:15:16
    INDEX 01 60:17:16
  TRACK 56 AUDIO
    INDEX 00 60:24:32
    INDEX 01 60:26:32
  TRACK 57 AUDIO
    INDEX 00 60:32:25
    INDEX 01 60:34:25
  TRACK 58 AUDIO
    INDEX 00 60:40:29
    INDEX 01 60:42:29
  TRACK 59 AUDIO
    INDEX 00 60:48:14
    INDEX 01 60:50:14
  TRACK 60 AUDIO
    INDEX 00 60:56:56
    INDEX 01 60:58:56
  TRACK 61 AUDIO
    INDEX 00 61:05:04
    INDEX 01 61:07:04
  TRACK 62 AUDIO
    INDEX 00 61:13:08
    INDEX 01 61:15:08
  TRACK 63 AUDIO
    INDEX 00 61:21:61
    INDEX 01 61:23:61
  TRACK 64 AUDIO
    INDEX 00 61:31:35
    INDEX 01 61:33:35
  TRACK 65 AUDIO
    INDEX 00 61:40:10
    INDEX 01 61:42:10
  TRACK 66 AUDIO
    INDEX 00 61:48:24
    INDEX 01 61:50:24
  TRACK 67 AUDIO
    INDEX 00 61:56:51
    INDEX 01 61:58:51
  TRACK 68 AUDIO
    INDEX 00 62:07:00
    INDEX 01 62:09:00
  TRACK 69 AUDIO
    INDEX 00 62:18:02
    INDEX 01 62:20:02
  TRACK 70 AUDIO
    INDEX 00 62:28:28
    INDEX 01 62:30:28
  TRACK 71 AUDIO
    INDEX 00 62:37:15
    INDEX 01 62:39:15
  TRACK 72 AUDIO
    INDEX 00 62:44:16
    INDEX 01 62:46:16
  TRACK 73 AUDIO
    INDEX 00 62:57:19
    INDEX 01 62:59:19
  TRACK 74 AUDIO
    INDEX 00 63:04:20
    INDEX 01 63:06:20
  TRACK 75 AUDIO
    INDEX 00 63:12:00
    INDEX 01 63:14:00
  TRACK 76 AUDIO
    INDEX 00 63:24:56
    INDEX 01 63:26:56
  TRACK 77 AUDIO
    INDEX 00 63:31:57
    INDEX 01 63:33:57
  TRACK 78 AUDIO
    INDEX 00 63:39:41
    INDEX 01 63:41:41
  TRACK 79 AUDIO
    INDEX 00 63:48:27
    INDEX 01 63:50:27
  TRACK 80 AUDIO
    INDEX 00 63:59:52
    INDEX 01 64:01:52
  TRACK 81 AUDIO
    INDEX 00 64:06:53
    INDEX 01 64:08:53
  TRACK 82 AUDIO
    INDEX 00 64:14:39
    INDEX 01 64:16:39
  TRACK 83 AUDIO
    INDEX 00 64:21:59
    INDEX 01 64:23:59
  TRACK 84 AUDIO
    INDEX 00 64:41:19
    INDEX 01 64:43:19
  TRACK 85 AUDIO
    INDEX 00 65:02:34
    INDEX 01 65:04:34
  TRACK 86 AUDIO
    INDEX 00 65:32:25
    INDEX 01 65:34:25
  TRACK 87 AUDIO
    INDEX 00 65:57:00
    INDEX 01 65:59:00
  TRACK 88 AUDIO
    INDEX 00 66:04:09
    INDEX 01 66:06:09
  TRACK 89 AUDIO
    INDEX 00 66:13:29
    INDEX 01 66:15:29
  TRACK 90 AUDIO
    INDEX 00 66:21:25
    INDEX 01 66:23:25
  TRACK 91 AUDIO
    INDEX 00 66:39:36
    INDEX 01 66:41:36
  TRACK 92 AUDIO
    INDEX 00 66:50:73
    INDEX 01 66:52:73
  TRACK 93 AUDIO
    INDEX 00 66:59:19
    INDEX 01 67:01:19
  TRACK 94 AUDIO
    INDEX 00 67:07:33
    INDEX 01 67:09:33
  TRACK 95 AUDIO
    INDEX 00 67:18:42
    INDEX 01 67:20:42
  TRACK 96 AUDIO
    INDEX 00 67:29:72
    INDEX 01 67:31:72
  TRACK 97 AUDIO
    INDEX 00 67:41:26
    INDEX 01 67:43:26
REM LEADOUT 70:44:59
